<svg width="100" height="100" viewBox="0 0 100 100" xmlns="http://www.w3.org/2000/svg">
  <!-- Fondo Circular Azul -->
  <circle cx="50" cy="50" r="49" fill="#52ade2" />
  
  <!-- Símbolo WiFi -->
  <g fill="#ffffff">
    <!-- Punto central -->
    <circle cx="50" cy="42" r="3" />
    <!-- Arco inferior -->
    <path d="M50 35c-3.5 0-6.7 1.4-9 3.7l2.1 2.1c1.8-1.8 4.2-2.8 6.9-2.8s5.1 1 6.9 2.8l2.1-2.1C56.7 36.4 53.5 35 50 35z" />
    <!-- Arco superior -->
    <path d="M50 28c-5.3 0-10.1 2.1-13.6 5.5l2.1 2.1C41.3 32.8 45.4 31 50 31s8.7 1.8 11.5 4.6l2.1-2.1C60.1 30.1 55.3 28 50 28z" />
  </g>

  <!-- Taza de Café Amarilla -->
  <g>
    <!-- Cuerpo de la taza -->
    <path d="M26 51v1c0 13.2 10.8 24 24 24s24-10.8 24-24v-1H26z" fill="#fbc143" />
    <!-- Asa de la taza -->
    <path d="M74 56c4 0 7 3 7 7s-3 7-7 7h-6" fill="none" stroke="#fbc143" stroke-width="6" stroke-linecap="round" />
  </g>
  
  <!-- Letra W Estilizada -->
  <path d="M38 58l4 10l4-10l4 10l4-10" fill="none" stroke="#ffffff" stroke-width="4.5" stroke-linecap="round" stroke-linejoin="round" />
</svg>
