<svg width="64" height="64" viewBox="0 0 64 64" xmlns="http://www.w3.org/2000/svg">
    <!-- WiFi Signal (Steam replacement) -->
    <g fill="#79c5f1">
        <path d="M32 5a18 18 0 0 0 -12.7 5.3l1.8 1.8a15.5 15.5 0 0 1 21.8 0l1.8-1.8A18 18 0 0 0 32 5z"/>
        <path d="M32 12a11 11 0 0 0 -7.8 3.2l1.8 1.8a8.5 8.5 0 0 1 12 0l1.8-1.8A11 11 0 0 0 32 12z"/>
        <circle cx="32" cy="20" r="2.5"/>
    </g>
    <!-- Coffee Cup -->
    <path d="M15 28h28v16c0 6.6-5.4 12-12 12H27c-6.6 0-12-5.4-12-12V28z" fill="#b79b6d"/>
    <!-- Handle -->
    <path d="M43 36h5c2.8 0 5 2.2 5 5v2c0 2.8-2.2 5-5 5h-5" fill="none" stroke="#b79b6d" stroke-width="5" stroke-linecap="round"/>
    <!-- Stylized W -->
    <path d="M22 36l3.5 12l3.5-12l3.5 12l3.5-12" fill="none" stroke="white" stroke-width="4" stroke-linecap="round" stroke-linejoin="round"/>
</svg>
